<svg version="1.1" id="Layer_1" xmlns="http://www.w3.org/2000/svg" xmlns:xlink="http://www.w3.org/1999/xlink" x="0px" y="0px"
	 width="100%" viewBox="0 0 496 496" enable-background="new 0 0 496 496" xml:space="preserve">
<path fill="#000000" opacity="1.000000" stroke="none" 
	d="
M294.426392,119.941216 
	C316.156189,118.332367 336.753754,120.476776 355.828735,131.067001 
	C366.210938,136.831100 375.165771,144.113235 381.172791,154.534149 
	C386.226685,163.301559 385.526642,174.086807 379.652283,181.287277 
	C373.046417,189.384415 362.666718,192.445282 353.149872,189.102554 
	C343.392883,185.675476 337.249847,177.223068 336.878723,166.714691 
	C336.456268,154.752121 345.262787,144.805038 358.036041,142.771423 
	C359.297363,142.570618 360.724884,143.079498 362.063660,141.745865 
	C359.974518,138.632797 356.604004,137.115936 353.574280,135.364548 
	C321.239044,116.672653 278.904999,119.959175 249.848267,143.307724 
	C243.909821,148.079559 243.843613,148.900864 249.147110,154.555054 
	C260.882599,167.066544 269.076752,181.560715 273.597076,198.117538 
	C273.902863,199.237564 274.191437,200.368500 274.381104,201.512100 
	C274.541229,202.477844 274.546143,203.469345 274.654724,204.915344 
	C252.579865,204.915344 230.710846,204.915344 207.931458,204.915344 
	C212.141708,183.498917 221.660950,165.324570 236.555847,149.487976 
	C232.360779,145.055740 227.600449,142.023438 222.722931,139.265671 
	C208.512482,131.231033 193.136200,127.463066 176.848083,127.369293 
	C167.348450,127.314598 157.846527,127.466599 148.349152,127.310379 
	C144.941696,127.254333 143.821640,128.215576 143.829559,131.860229 
	C143.956314,190.192841 143.929108,248.525787 143.907806,306.858673 
	C143.903137,319.656647 143.851196,319.626984 156.846436,319.665253 
	C169.499527,319.702484 182.150574,319.901093 194.696365,317.727386 
	C207.391510,315.527771 218.776627,310.222229 229.535126,303.358368 
	C232.972336,301.165436 230.843979,299.205109 229.283386,297.260040 
	C221.263031,287.263824 215.487457,276.079681 211.562439,263.909149 
	C211.006729,262.186035 210.082336,260.509308 211.112198,258.296387 
	C230.464615,258.296387 249.953430,258.296387 269.968567,258.296387 
	C267.852203,266.617523 263.501709,273.090790 259.203278,279.551422 
	C255.969986,284.411133 252.200500,288.863190 248.095993,293.037598 
	C243.090469,298.128387 243.623398,306.951385 249.095978,311.427460 
	C280.088287,336.776245 323.911255,338.986023 357.218018,316.966095 
	C359.529724,315.437775 360.726776,313.806976 360.699951,310.928192 
	C360.584961,298.596008 360.572601,286.261139 360.712097,273.929413 
	C360.750824,270.504486 359.607452,269.053802 356.099396,269.221405 
	C352.611542,269.388092 349.103760,269.218018 345.608063,269.098541 
	C344.398529,269.057220 343.221832,268.575012 343.177063,267.112579 
	C343.129303,265.553375 344.420135,265.298492 345.584137,265.154968 
	C346.736877,265.012848 347.911102,265.007446 349.075958,265.006775 
	C367.575836,264.996246 386.075684,264.994965 404.575562,264.997009 
	C405.574982,264.997101 406.580688,264.984344 407.572388,265.085876 
	C409.074860,265.239685 410.874878,265.374054 410.697784,267.439911 
	C410.553284,269.125122 408.916656,269.199280 407.577240,269.222290 
	C404.244934,269.279633 400.909698,269.340759 397.578918,269.261871 
	C394.698456,269.193634 392.827667,270.331116 393.410583,273.336487 
	C396.335785,288.418579 386.131775,297.184906 377.155396,306.064636 
	C362.158813,320.899689 344.385681,330.955048 323.275177,334.603119 
	C291.637665,340.070374 264.431793,330.988495 240.860382,309.834747 
	C235.221451,304.774200 235.338654,304.635803 228.882339,308.603577 
	C213.038300,318.340637 195.804520,323.262756 177.223160,323.310333 
	C151.723450,323.375610 126.223366,323.351166 100.723671,323.281403 
	C98.699631,323.275879 96.006241,324.301117 94.794960,320.852966 
	C98.649551,318.602234 102.687996,319.745544 106.471207,319.755341 
	C110.347900,319.765381 111.710312,318.504181 111.704292,314.551453 
	C111.611900,253.885162 111.615036,193.218658 111.697006,132.552338 
	C111.702255,128.665817 110.405731,127.060356 106.476753,127.334145 
	C103.494278,127.541992 100.480637,127.353607 97.483002,127.267242 
	C96.304054,127.233276 94.990128,127.057487 95.061234,125.430435 
	C95.130821,123.837990 96.468498,123.784233 97.626282,123.721901 
	C99.122597,123.641357 100.624733,123.652710 102.124367,123.652580 
	C126.790932,123.650482 151.460892,123.907661 176.123047,123.578766 
	C198.472824,123.280716 218.401810,129.926605 236.219971,143.119278 
	C239.173492,145.306091 240.889999,145.375366 243.773697,142.906433 
	C258.275940,130.489929 275.039581,122.812622 294.426392,119.941216 
z"/>
<path fill="#000000" opacity="1.000000" stroke="none" 
	d="
M232.079773,231.249603 
	C232.054840,234.934189 232.054840,238.243073 232.054840,241.553329 
	C230.412766,242.730713 228.831345,242.280411 226.674850,241.851013 
	C228.058777,233.465637 225.148193,226.355301 220.413834,219.869919 
	C217.543060,220.516113 219.123718,223.350845 217.488693,224.361389 
	C215.034973,223.768173 215.982086,219.721756 212.096512,219.792801 
	C210.549347,226.947464 211.471619,234.255676 211.622681,241.821854 
	C210.124298,242.800079 208.369537,242.216003 206.192749,242.057983 
	C206.192749,234.497330 206.192749,227.150558 206.192749,219.835434 
	C202.224548,219.349365 203.072449,223.719772 200.611832,224.377869 
	C198.663391,219.046707 199.395508,217.823029 204.749023,217.759705 
	C210.740891,217.688828 216.734146,217.687042 222.726349,217.725418 
	C224.138428,217.734451 225.674728,217.384445 226.523224,219.284485 
	C228.270874,223.198029 230.231628,227.016388 232.079773,231.249603 
z"/>
<path fill="#000000" opacity="1.000000" stroke="none" 
	d="
M188.969818,226.080231 
	C190.962646,227.312408 192.758682,228.211594 194.362198,229.375946 
	C198.553024,232.418930 199.308334,236.352219 196.559860,240.096970 
	C193.754486,243.919250 189.327713,244.268021 185.033554,240.986893 
	C185.833893,240.122833 186.576614,240.865265 187.267563,241.116638 
	C190.174744,242.174149 192.825714,241.554932 194.115814,238.860077 
	C195.566788,235.829193 192.738495,234.502640 190.721725,233.135025 
	C189.354736,232.208038 187.775314,231.591553 186.420898,230.649338 
	C182.443695,227.882492 181.475555,223.279419 184.065018,219.906281 
	C186.807846,216.333344 191.971237,215.923065 195.546280,219.003433 
	C196.867813,220.142136 197.964783,221.432785 197.002014,223.285416 
	C196.395096,224.453323 195.221802,224.743195 193.994171,224.440216 
	C192.238861,224.007004 191.655670,222.779709 191.865601,221.051849 
	C191.941574,220.426529 191.877808,219.784225 191.877808,218.987671 
	C189.439209,218.264160 187.776260,219.316574 186.870972,221.162048 
	C185.915695,223.109482 187.249893,224.609543 188.969818,226.080231 
z"/>
<path fill="#000000" opacity="1.000000" stroke="none" 
	d="
M288.395508,219.039551 
	C285.773499,218.506393 283.601746,219.336624 282.929413,221.572067 
	C282.174561,224.081940 284.562744,225.288010 286.294556,226.504883 
	C287.784302,227.551697 289.462036,228.333099 290.939331,229.395020 
	C294.587128,232.017151 295.398346,235.517319 293.407318,239.449341 
	C291.567535,243.082840 287.876587,243.939117 283.243744,242.116547 
	C283.941864,240.873718 285.013489,241.781128 285.869049,241.696747 
	C288.000336,241.486618 289.889679,240.869293 290.524567,238.649307 
	C291.171387,236.387802 289.862732,234.866577 288.042542,233.711014 
	C285.942230,232.377640 283.643005,231.265549 281.802002,229.637039 
	C278.924255,227.091476 277.627197,223.923584 280.314362,220.416870 
	C282.798126,217.175537 285.907654,215.819809 289.893219,217.859558 
	C291.886078,218.879471 293.844269,219.984955 293.529724,222.599380 
	C293.345886,224.127502 292.058746,224.832382 290.554474,224.510361 
	C287.208832,223.794128 289.027374,221.071671 288.395508,219.039551 
z"/>
<path fill="#000000" opacity="1.000000" stroke="none" 
	d="
M266.304932,217.712097 
	C267.919159,217.730179 269.083862,217.734940 270.248444,217.749985 
	C275.618439,217.819321 276.207336,218.720917 274.493195,224.438995 
	C272.154266,223.088242 272.601837,218.099487 268.181335,219.582596 
	C265.975647,220.322617 266.619934,222.178726 266.360687,223.741592 
	C265.802277,227.108078 267.016052,229.116974 271.282959,229.632172 
	C265.408508,229.675385 266.376373,233.428207 266.389526,236.550232 
	C266.396301,238.155899 266.032532,240.093079 268.241058,240.663239 
	C272.200714,241.685501 272.985626,238.120453 274.535065,235.497681 
	C276.944580,240.848434 276.253723,242.367905 271.613159,242.144165 
	C268.181030,241.978638 264.678680,243.120148 261.215332,241.769684 
	C262.117340,235.065369 261.820374,228.429459 261.594635,221.826462 
	C261.475525,218.342529 262.741943,217.332916 266.304932,217.712097 
z"/>
<path fill="#000000" opacity="1.000000" stroke="none" 
	d="
M244.120087,242.192917 
	C243.686981,237.067093 243.628265,232.030457 243.591705,226.993652 
	C243.571381,224.193054 243.588043,221.392181 243.588043,218.008163 
	C244.480103,217.167969 246.058868,217.718536 248.223846,218.283386 
	C248.223846,223.251297 248.055740,228.347763 248.297134,233.424744 
	C248.412048,235.841354 246.741257,239.209503 250.117310,240.460052 
	C253.737122,241.800903 254.744400,238.319229 256.307220,235.441330 
	C257.853973,237.680664 257.391663,239.559708 257.256775,241.848938 
	C253.015106,242.765305 248.733871,242.156204 244.120087,242.192917 
z"/>
</svg>